<?xml version="1.0" standalone="no"?>
<!DOCTYPE svg PUBLIC "-//W3C//DTD SVG 20010904//EN"
 "http://www.w3.org/TR/2001/REC-SVG-20010904/DTD/svg10.dtd">
<svg version="1.0" xmlns="http://www.w3.org/2000/svg"
 width="512.000000pt" height="512.000000pt" viewBox="0 0 512.000000 512.000000"
 preserveAspectRatio="xMidYMid meet">

<g transform="translate(0.000000,512.000000) scale(0.100000,-0.100000)"
fill="#ffffff" stroke="none">
<path d="M3507 4740 c-20 -5 -55 -19 -77 -30 -78 -40 -3076 -1773 -3115 -1801
-52 -38 -90 -86 -123 -157 -35 -78 -42 -203 -15 -282 19 -57 331 -608 366
-647 24 -27 56 -29 114 -7 24 9 46 14 49 11 3 -3 8 -24 11 -46 17 -128 -103
-261 -236 -261 -21 0 -41 -9 -57 -25 l-25 -25 3 -383 3 -383 37 -76 c45 -91
103 -147 196 -191 l67 -32 1855 0 1855 0 67 32 c93 44 151 100 196 191 l37 76
3 383 3 383 -25 25 c-16 16 -36 25 -57 25 -123 0 -239 117 -239 240 0 123 116
240 239 240 21 0 41 9 56 25 24 23 25 29 25 157 l1 133 64 43 c74 50 136 133
160 215 20 68 19 180 -3 242 -19 54 -333 606 -365 643 -25 27 -57 28 -125 2
-91 -35 -173 -22 -242 38 -60 51 -84 104 -84 182 0 82 18 118 95 191 43 41 59
63 59 83 0 26 -255 481 -346 617 -46 69 -103 116 -180 151 -54 23 -186 33
-247 18z m198 -174 c28 -13 60 -34 72 -47 20 -23 313 -523 313 -535 0 -3 -15
-24 -34 -47 -48 -60 -73 -115 -87 -191 -32 -174 62 -351 228 -429 57 -26 79
-31 148 -31 44 -1 94 2 112 6 l32 7 140 -243 c78 -134 148 -260 156 -280 34
-81 9 -200 -53 -258 -15 -14 -189 -119 -387 -233 -198 -114 -374 -216 -392
-227 l-32 -19 -20 40 c-36 70 -95 92 -139 51 -35 -33 -37 -64 -8 -117 21 -37
24 -49 14 -58 -19 -17 -2108 -1222 -2159 -1245 -84 -38 -206 -14 -266 51 -19
22 -313 522 -313 534 0 3 18 28 39 55 160 202 95 493 -135 607 -68 33 -84 37
-157 37 -45 1 -96 -2 -114 -6 l-32 -7 -140 243 c-78 134 -148 260 -156 280
-34 81 -9 200 53 258 15 14 203 127 417 250 361 208 1392 804 1687 974 70 41
129 74 132 74 2 0 -1 -13 -6 -28 -10 -24 -7 -36 18 -81 49 -91 102 -114 149
-66 34 33 32 70 -8 135 -23 39 -41 58 -64 65 -31 10 -24 15 330 220 468 271
495 285 561 285 33 0 69 -9 101 -24z m855 -2381 c0 -23 -5 -35 -14 -35 -7 0
-45 -16 -83 -35 -86 -43 -144 -103 -186 -193 -29 -61 -32 -76 -32 -162 0 -86
3 -101 32 -162 42 -90 100 -150 186 -193 38 -19 76 -35 83 -35 19 0 20 -581 2
-644 -16 -55 -99 -138 -154 -154 -30 -9 -169 -12 -498 -12 l-456 0 0 55 c0 67
-29 105 -80 105 -51 0 -80 -38 -80 -105 l0 -55 -802 0 -802 0 199 114 c110 63
472 272 804 464 l604 349 23 -24 c54 -54 134 -12 134 70 l0 44 557 322 c306
176 558 321 560 321 2 0 3 -16 3 -35z m-3633 -417 c50 -54 67 -96 67 -168 0
-82 -18 -118 -95 -191 -43 -41 -59 -63 -59 -83 0 -36 330 -608 384 -665 22
-24 61 -56 85 -72 l45 -29 -293 0 c-201 0 -307 4 -335 12 -55 16 -138 99 -154
154 -18 63 -17 644 2 644 7 0 45 16 83 35 127 63 208 184 220 324 3 39 9 71
12 71 4 0 21 -15 38 -32z"/>
<path d="M3286 4261 c-159 -92 -295 -176 -302 -186 -8 -10 -14 -29 -14 -42 0
-26 161 -312 191 -339 11 -10 32 -17 47 -17 28 0 578 309 614 345 34 34 23 73
-68 230 -89 153 -111 178 -154 177 -14 0 -155 -76 -314 -168z m328 -87 c22
-37 35 -69 30 -74 -14 -13 -392 -230 -401 -230 -13 0 -87 134 -77 137 5 2 97
55 204 117 107 63 197 115 200 115 3 1 23 -29 44 -65z"/>
<path d="M2812 3803 c-7 -3 -19 -18 -28 -35 -18 -34 -11 -61 30 -127 32 -50
63 -64 106 -50 71 25 65 109 -13 197 -20 21 -63 28 -95 15z"/>
<path d="M2995 3532 c-28 -6 -52 -29 -60 -59 -7 -29 33 -117 67 -145 29 -26
80 -23 106 5 30 32 28 70 -8 132 -31 54 -64 75 -105 67z"/>
<path d="M1583 3274 c-113 -58 -133 -77 -133 -123 0 -33 23 -62 231 -299 127
-145 230 -264 228 -266 -17 -14 -192 -128 -203 -132 -8 -3 -48 17 -88 44 -111
74 -135 84 -204 85 -98 1 -214 -67 -214 -126 0 -11 32 -75 71 -144 l71 -124
-49 -55 c-84 -96 -106 -130 -100 -156 11 -41 97 -177 123 -194 23 -16 31 -15
132 5 125 25 102 39 195 -119 78 -133 95 -143 172 -105 66 32 131 103 146 159
7 26 9 81 5 153 l-7 113 115 57 c63 31 117 55 119 53 2 -3 52 -149 111 -325
136 -404 138 -405 279 -324 133 77 180 140 181 244 1 33 -8 198 -18 366 l-20
306 62 59 c50 49 79 92 163 244 112 202 120 228 75 267 -26 22 -35 23 -189 26
-267 4 -302 2 -368 -23 l-61 -22 -286 191 c-158 104 -300 195 -315 201 -16 5
-53 10 -82 10 -45 0 -70 -8 -142 -46z m417 -276 c135 -89 249 -165 254 -169 4
-4 -40 -40 -100 -79 -104 -70 -108 -72 -123 -54 -9 11 -96 110 -193 221 -98
111 -178 206 -178 212 0 15 32 30 65 31 22 0 93 -42 275 -162z m836 -202 c8
-6 -140 -245 -162 -262 -24 -19 -1026 -524 -1039 -524 -12 0 -86 143 -77 149
5 3 220 146 478 318 302 201 483 316 509 322 30 7 283 5 291 -3z m-1346 -407
l63 -40 -36 -25 c-20 -13 -40 -24 -46 -24 -10 0 -71 103 -71 120 0 19 27 10
90 -31z m1080 -116 c0 -10 9 -146 19 -303 16 -240 17 -288 6 -310 -16 -32 -63
-57 -70 -37 -41 115 -185 543 -185 549 0 7 206 116 223 117 4 1 7 -7 7 -16z
m-1120 -269 c23 -41 20 -49 -26 -57 -23 -4 -33 -1 -42 13 -10 16 -7 24 14 50
14 16 27 30 29 30 2 0 13 -16 25 -36z m360 -172 c0 -59 -12 -105 -23 -92 -2 3
-20 32 -39 66 l-36 61 42 20 c22 12 44 19 49 16 4 -2 7 -34 7 -71z"/>
<path d="M3127 3240 c-40 -32 -42 -63 -7 -129 44 -83 98 -104 145 -56 33 32
32 68 -6 133 -41 72 -85 89 -132 52z"/>
<path d="M4359 3031 c-160 -86 -548 -317 -566 -337 -29 -31 -29 -64 -2 -98 39
-49 62 -41 376 140 158 91 294 172 301 181 19 26 15 80 -8 103 -11 11 -24 20
-29 20 -5 0 -15 2 -23 5 -7 3 -29 -3 -49 -14z"/>
<path d="M3282 2960 c-36 -34 -37 -64 -5 -122 51 -90 102 -109 153 -58 27 27
25 68 -6 124 -43 76 -97 98 -142 56z"/>
<path d="M4250 2600 c-162 -94 -301 -178 -307 -187 -34 -45 7 -123 63 -123 28
0 568 303 612 343 46 42 11 137 -50 137 -13 0 -156 -77 -318 -170z"/>
<path d="M3443 2685 c-35 -25 -37 -61 -6 -122 31 -63 55 -83 98 -83 39 0 75
36 75 74 0 30 -28 84 -63 124 -24 26 -72 29 -104 7z"/>
<path d="M3625 2420 c-68 -27 -62 -116 12 -196 46 -50 133 -16 133 50 0 39
-54 130 -85 144 -30 14 -33 14 -60 2z"/>
<path d="M3305 1335 c-22 -21 -25 -33 -25 -95 0 -62 3 -74 25 -95 15 -16 36
-25 55 -25 19 0 40 9 55 25 22 21 25 33 25 95 0 62 -3 74 -25 95 -15 16 -36
25 -55 25 -19 0 -40 -9 -55 -25z"/>
<path d="M3705 1175 c-16 -15 -25 -36 -25 -55 0 -19 9 -40 25 -55 l24 -25 311
0 311 0 24 25 c16 15 25 36 25 55 0 19 -9 40 -25 55 l-24 25 -311 0 -311 0
-24 -25z"/>
<path d="M3305 1015 c-22 -21 -25 -33 -25 -95 0 -62 3 -74 25 -95 15 -16 36
-25 55 -25 19 0 40 9 55 25 22 21 25 33 25 95 0 62 -3 74 -25 95 -15 16 -36
25 -55 25 -19 0 -40 -9 -55 -25z"/>
<path d="M3705 855 c-16 -15 -25 -36 -25 -55 0 -19 9 -40 25 -55 l24 -25 311
0 311 0 24 25 c16 15 25 36 25 55 0 19 -9 40 -25 55 l-24 25 -311 0 -311 0
-24 -25z"/>
</g>
</svg>
